<svg width="105" height="30" viewBox="0 0 105 30" fill="none" xmlns="http://www.w3.org/2000/svg">
<path d="M57.2593 27.1461H52.643L45.5134 17.2809L44.0602 19.0419V27.1461H40.5039V3.20974H44.0602V13.5195L52.6772 3.20974H57.3277L47.8558 14.5111L57.2593 27.1461Z" fill="#2F2F2F" style="fill:#2F2F2F;fill:color(display-p3 0.1825 0.1825 0.1825);fill-opacity:1;"/>
<path d="M70.1604 10.0487H73.7167V27.1461H70.1433L70.0066 24.667C69.505 25.5446 68.8268 26.2513 67.972 26.787C67.1171 27.3228 66.1084 27.5906 64.9457 27.5906C63.6919 27.5906 62.5122 27.3569 61.4066 26.8896C60.301 26.4109 59.3264 25.7498 58.4829 24.9063C57.6509 24.0628 57.0012 23.094 56.5338 21.9998C56.0665 20.8941 55.8328 19.7087 55.8328 18.4435C55.8328 17.2239 56.0608 16.0784 56.5167 15.0069C56.9727 13.9241 57.6053 12.978 58.4145 12.1688C59.2238 11.3595 60.1585 10.7269 61.2185 10.271C62.2899 9.80363 63.4355 9.56997 64.6551 9.56997C65.8975 9.56997 66.9917 9.85492 67.9378 10.4248C68.8952 10.9834 69.6874 11.7014 70.3143 12.5791L70.1604 10.0487ZM64.8603 24.154C65.8633 24.154 66.741 23.909 67.4932 23.4188C68.2455 22.9173 68.8268 22.2448 69.2372 21.4014C69.6589 20.5579 69.8698 19.6232 69.8698 18.5974C69.8698 17.5601 69.6589 16.6198 69.2372 15.7763C68.8154 14.9328 68.2284 14.266 67.4762 13.7759C66.7353 13.2744 65.8633 13.0236 64.8603 13.0236C63.8686 13.0236 62.9624 13.2744 62.1418 13.7759C61.3211 14.2774 60.6714 14.9499 60.1927 15.7934C59.7139 16.6369 59.4746 17.5715 59.4746 18.5974C59.4746 19.6346 59.7196 20.575 60.2098 21.4185C60.7113 22.2505 61.3667 22.9173 62.176 23.4188C62.9966 23.909 63.8914 24.154 64.8603 24.154Z" fill="#2F2F2F" style="fill:#2F2F2F;fill:color(display-p3 0.1825 0.1825 0.1825);fill-opacity:1;"/>
<path d="M75.8942 27.1461V1.5H79.4505V27.1461H75.8942Z" fill="#2F2F2F" style="fill:#2F2F2F;fill:color(display-p3 0.1825 0.1825 0.1825);fill-opacity:1;"/>
<path d="M82.1735 10.0487H85.7297V27.1461H82.1735V10.0487ZM83.9858 7.56957C83.4387 7.56957 82.9828 7.3929 82.618 7.03955C82.2533 6.68621 82.0709 6.24168 82.0709 5.70596C82.0709 5.18164 82.2533 4.7428 82.618 4.38946C82.9828 4.02471 83.433 3.84234 83.9687 3.84234C84.493 3.84234 84.9376 4.02471 85.3023 4.38946C85.6671 4.7428 85.8494 5.18164 85.8494 5.70596C85.8494 6.24168 85.6671 6.68621 85.3023 7.03955C84.949 7.3929 84.5101 7.56957 83.9858 7.56957Z" fill="#2F2F2F" style="fill:#2F2F2F;fill:color(display-p3 0.1825 0.1825 0.1825);fill-opacity:1;"/>
<path d="M101.454 10.0487H105.01V27.1461H101.437L101.3 24.667C100.799 25.5446 100.12 26.2513 99.2655 26.787C98.4107 27.3228 97.4019 27.5906 96.2393 27.5906C94.9855 27.5906 93.8058 27.3569 92.7001 26.8896C91.5945 26.4109 90.62 25.7498 89.7765 24.9063C88.9444 24.0628 88.2947 23.094 87.8274 21.9998C87.3601 20.8941 87.1264 19.7087 87.1264 18.4435C87.1264 17.2239 87.3543 16.0784 87.8103 15.0069C88.2662 13.9241 88.8988 12.978 89.7081 12.1688C90.5174 11.3595 91.452 10.7269 92.5121 10.271C93.5835 9.80363 94.729 9.56997 95.9486 9.56997C97.191 9.56997 98.2853 9.85492 99.2313 10.4248C100.189 10.9834 100.981 11.7014 101.608 12.5791L101.454 10.0487ZM96.1538 24.154C97.1569 24.154 98.0345 23.909 98.7868 23.4188C99.5391 22.9173 100.12 22.2448 100.531 21.4014C100.952 20.5579 101.163 19.6232 101.163 18.5974C101.163 17.5601 100.952 16.6198 100.531 15.7763C100.109 14.9328 99.522 14.266 98.7697 13.7759C98.0288 13.2744 97.1569 13.0236 96.1538 13.0236C95.1622 13.0236 94.256 13.2744 93.4353 13.7759C92.6147 14.2774 91.9649 14.9499 91.4862 15.7934C91.0075 16.6369 90.7681 17.5715 90.7681 18.5974C90.7681 19.6346 91.0132 20.575 91.5033 21.4185C92.0048 22.2505 92.6602 22.9173 93.4695 23.4188C94.2902 23.909 95.185 24.154 96.1538 24.154Z" fill="#2F2F2F" style="fill:#2F2F2F;fill:color(display-p3 0.1825 0.1825 0.1825);fill-opacity:1;"/>
<path d="M15 30C14.3963 30 13.7927 29.9053 13.2127 29.7277L6.37108 27.5972C4.47721 27.0053 2.99763 25.5257 2.4058 23.6319L0.275202 16.7903C-0.0917341 15.6185 -0.0917341 14.3875 0.275202 13.2156L2.4058 6.33853C2.99763 4.43283 4.48905 2.95325 6.39475 2.36142L13.2363 0.266325C14.3963 -0.0887749 15.6155 -0.0887749 16.7755 0.266325L23.6408 2.37325C25.5465 2.96509 27.0379 4.4565 27.6297 6.3622L29.7366 13.2275C30.0917 14.3874 30.0917 15.6066 29.7366 16.7666L27.6297 23.6082C27.0497 25.5139 25.5583 27.0053 23.6526 27.5972L16.7755 29.7277C16.1955 29.9053 15.5918 30 14.9882 30H15ZM15 2.51529C14.6567 2.51529 14.3016 2.56264 13.9702 2.66917L7.12862 4.76425C6.01598 5.10751 5.1519 5.9716 4.80864 7.08425L2.67804 13.9613C2.46498 14.6479 2.46498 15.3699 2.67804 16.0446L4.80864 22.8862C5.1519 23.987 6.01598 24.8629 7.12862 25.2062L13.9702 27.3368C14.6567 27.5498 15.3669 27.5498 16.0535 27.3368L22.9306 25.2062C24.0432 24.8629 24.9073 23.987 25.2505 22.8862L27.3456 16.0446C27.5587 15.3699 27.5587 14.6597 27.3456 13.9732L25.2387 7.10791C24.8954 5.99527 24.0195 5.11936 22.9069 4.7761L16.0416 2.66917C15.6984 2.56264 15.3551 2.51529 15.0118 2.51529H15Z" fill="#2F2F2F" style="fill:#2F2F2F;fill:color(display-p3 0.1825 0.1825 0.1825);fill-opacity:1;"/>
<path d="M17.7105 17.2638L22.9423 15.6421C23.5696 15.4409 23.5696 14.5532 22.9423 14.3519L17.7105 12.7422C17.4975 12.6711 17.3317 12.5054 17.2607 12.2924L15.6509 7.06057C15.4615 6.43322 14.562 6.42139 14.3607 7.06057L12.7391 12.2924C12.6681 12.5054 12.5024 12.6711 12.2893 12.7422L7.04569 14.3519C6.41834 14.5413 6.40651 15.4409 7.04569 15.6421L12.2893 17.2756C12.5024 17.3466 12.6681 17.5123 12.7273 17.7136L14.3607 22.9572C14.562 23.5845 15.4497 23.5845 15.6509 22.9572L17.2607 17.7136C17.3317 17.5005 17.4975 17.3348 17.7105 17.2638Z" fill="#2F2F2F" style="fill:#2F2F2F;fill:color(display-p3 0.1825 0.1825 0.1825);fill-opacity:1;"/>
</svg>
