<svg width="19" height="19" viewBox="0 0 19 19" fill="none" xmlns="http://www.w3.org/2000/svg">
<path d="M9.49906 19C9.11678 19 8.73449 18.94 8.3672 18.8276L4.03462 17.4782C2.83529 17.1034 1.89831 16.1663 1.52352 14.9669L0.174278 10.6339C-0.0580925 9.8917 -0.0580925 9.11205 0.174278 8.36989L1.52352 4.0144C1.89831 2.80746 2.84278 1.87039 4.04961 1.49557L8.38219 0.168672C9.11677 -0.0562241 9.88884 -0.0562241 10.6234 0.168672L14.971 1.50306C16.1778 1.87789 17.1223 2.82245 17.4971 4.02939L18.8313 8.37739C19.0562 9.11205 19.0562 9.8842 18.8313 10.6189L17.4971 14.9519C17.1298 16.1588 16.1853 17.1034 14.9785 17.4782L10.6234 18.8276C10.2561 18.94 9.87386 19 9.49157 19H9.49906ZM9.49906 1.59302C9.28168 1.59302 9.05681 1.62301 8.84693 1.69047L4.51435 3.01736C3.80974 3.23476 3.26255 3.78201 3.04517 4.48669L1.69593 8.84218C1.561 9.27698 1.561 9.73427 1.69593 10.1616L3.04517 14.4946C3.26255 15.1918 3.80974 15.7465 4.51435 15.9639L8.84693 17.3133C9.28168 17.4482 9.73143 17.4482 10.1662 17.3133L14.5213 15.9639C15.2259 15.7465 15.7731 15.1918 15.9904 14.4946L17.3172 10.1616C17.4521 9.73427 17.4521 9.28448 17.3172 8.84968L15.9829 4.50168C15.7656 3.797 15.2109 3.24226 14.5063 3.02486L10.1587 1.69047C9.94131 1.62301 9.72394 1.59302 9.50656 1.59302H9.49906Z" fill="#F9F9F9" style="fill:#F9F9F9;fill:color(display-p3 0.9765 0.9765 0.9765);fill-opacity:1;"/>
<path d="M11.2156 10.9337L14.5287 9.90669C14.926 9.77925 14.926 9.217 14.5287 9.08956L11.2156 8.07003C11.0806 8.02505 10.9757 7.92011 10.9307 7.78517L9.91128 4.47169C9.79135 4.07438 9.22167 4.06688 9.09424 4.47169L8.06731 7.78517C8.02234 7.92011 7.91739 8.02505 7.78247 8.07003L4.46183 9.08956C4.06455 9.20951 4.05705 9.77925 4.46183 9.90669L7.78247 10.9412C7.91739 10.9862 8.02234 11.0911 8.05982 11.2186L9.09424 14.5396C9.22167 14.9369 9.78385 14.9369 9.91128 14.5396L10.9307 11.2186C10.9757 11.0836 11.0806 10.9787 11.2156 10.9337Z" fill="#F9F9F9" style="fill:#F9F9F9;fill:color(display-p3 0.9765 0.9765 0.9765);fill-opacity:1;"/>
</svg>
